HIERARCHY
ROOT Hips
{
  OFFSET 20.3238 40.1536 67.9178
  CHANNELS 6 Xposition Yposition Zposition Zrotation Xrotation Yrotation
  JOINT LeftHip
  {
    OFFSET 3.43 -1.06581e-014 -1.42109e-014
    CHANNELS 6 Xposition Yposition Zposition Zrotation Xrotation Yrotation
    JOINT LeftKnee
    {
      OFFSET 6.39488e-014 -18.47 -5.68434e-014
      CHANNELS 6 Xposition Yposition Zposition Zrotation Xrotation Yrotation
      JOINT LeftAnkle
      {
        OFFSET 0 -17.95 -4.44089e-015
        CHANNELS 6 Xposition Yposition Zposition Zrotation Xrotation Yrotation
        End Site
        {
          OFFSET 0 -3.12 0
        }
      }
    }
  }
  JOINT RightHip
  {
    OFFSET -3.43 2.62901e-013 4.26326e-014
    CHANNELS 6 Xposition Yposition Zposition Zrotation Xrotation Yrotation
    JOINT RightKnee
    {
      OFFSET -4.44089e-015 -18.47 -9.9476e-014
      CHANNELS 6 Xposition Yposition Zposition Zrotation Xrotation Yrotation
      JOINT RightAnkle
      {
        OFFSET -5.32907e-015 -17.95 1.06581e-014
        CHANNELS 6 Xposition Yposition Zposition Zrotation Xrotation Yrotation
        End Site
        {
          OFFSET 0 -3.12 0
        }
      }
    }
  }
  JOINT Chest
  {
    OFFSET 4.9738e-014 4.57 1.42109e-014
    CHANNELS 6 Xposition Yposition Zposition Zrotation Xrotation Yrotation
    JOINT Chest2
    {
      OFFSET -1.06581e-014 6.57 -3.55271e-015
      CHANNELS 6 Xposition Yposition Zposition Zrotation Xrotation Yrotation
      JOINT LeftCollar
      {
        OFFSET 1.06 4.19 1.76
        CHANNELS 6 Xposition Yposition Zposition Zrotation Xrotation Yrotation
        JOINT LeftShoulder
        {
          OFFSET 5.81 -1.42109e-014 8.52651e-014
          CHANNELS 6 Xposition Yposition Zposition Zrotation Xrotation Yrotation
          JOINT LeftElbow
          {
            OFFSET 2.02505e-013 -12.08 5.68434e-014
            CHANNELS 6 Xposition Yposition Zposition Zrotation Xrotation Yrotation
            JOINT LeftWrist
            {
              OFFSET -2.13163e-014 -9.82 2.13163e-014
              CHANNELS 6 Xposition Yposition Zposition Zrotation Xrotation Yrotation
              End Site
              {
                OFFSET 0 -7.37 0
              }
            }
          }
        }
      }
      JOINT RightCollar
      {
        OFFSET -1.06 4.19 1.76
        CHANNELS 6 Xposition Yposition Zposition Zrotation Xrotation Yrotation
        JOINT RightShoulder
        {
          OFFSET -6.06 1.42109e-014 -3.73035e-014
          CHANNELS 6 Xposition Yposition Zposition Zrotation Xrotation Yrotation
          JOINT RightElbow
          {
            OFFSET 2.13163e-013 -11.08 5.68434e-014
            CHANNELS 6 Xposition Yposition Zposition Zrotation Xrotation Yrotation
            JOINT RightWrist
            {
              OFFSET 1.42109e-014 -9.82 8.52651e-014
              CHANNELS 6 Xposition Yposition Zposition Zrotation Xrotation Yrotation
              End Site
              {
                OFFSET 0 -7.14001 0
              }
            }
          }
        }
      }
      JOINT Neck
      {
        OFFSET 5.32907e-014 4.05 -1.24345e-014
        CHANNELS 6 Xposition Yposition Zposition Zrotation Xrotation Yrotation
        JOINT Head
        {
          OFFSET 3.55271e-015 5.19 0
          CHANNELS 6 Xposition Yposition Zposition Zrotation Xrotation Yrotation
          End Site
          {
            OFFSET 0 4.14001 0
          }
        }
      }
    }
  }
}
MOTION
Frames:	5
Frame Time:	0.0333333
19.8827 36.9607 -16.1723 -0.0837919 -12.1076 -2.28948 3.43 -1.03934e-013 -2.86584e-014 15.4582 -9.81563 11.4852 1.41881e-014 -18.47 -9.29897e-015 0.152752 40.6363 1.6105 0 -17.95 -4.44089e-015 -11.8767 -15.1435 -1.58431 -3.43 -2.18347e-013 3.677e-015 -11.8641 -10.7199 -8.09294 -4.44089e-015 -18.47 -2.08849e-014 -4.71116 42.539 8.29463 -5.32907e-015 -17.95 1.06581e-014 10.1422 -19.1157 1.7121 7.09831e-014 4.57 -5.14431e-014 -0.355533 0.796892 1.42515 -1.06581e-014 6.57 -3.55271e-015 -0.473491 0.680798 1.25921 1.06 4.19 1.76 11.4017 -0.0379165 -3.31871 5.81 1.99588e-014 -3.18552e-014 114.661 -68.674 52.6684 -4.72296e-014 -12.08 -4.96104e-014 -16.0138 -21.1007 -40.21 -2.13163e-014 -9.82 2.13163e-014 2.21439 -3.36498 0.0651355 -1.06 4.19 1.76 -4.32696 0.258488 6.40933 -6.06 -8.3887e-014 -3.73035e-014 -107.955 -58.7852 -23.2292 2.26332e-014 -11.08 -3.90737e-014 10.5732 -16.3587 28.1169 -4.26142e-014 -9.82 8.52651e-014 -6.35557 -9.066 -0.50432 5.32907e-014 4.05 -1.24345e-014 -0.688195 11.3124 -1.64146 3.55271e-015 5.19 0 2.34884 2.13448 -2.51031 
19.866 36.9752 -16.1689 -0.0595013 -12.0848 -2.26829 3.43 -9.00266e-014 -2.95912e-014 15.3862 -9.75431 11.405 1.40578e-014 -18.47 -9.52111e-015 0.200475 40.4865 1.56201 0 -17.95 -4.44089e-015 -11.9056 -15.1064 -1.58425 -3.43 -2.14012e-013 5.13122e-015 -11.742 -10.7072 -7.95949 -4.44089e-015 -18.47 -2.09475e-014 -4.81984 42.4486 8.1268 -5.32907e-015 -17.95 1.06581e-014 10.2282 -19.0687 1.72236 7.05563e-014 4.57 -5.11259e-014 -0.357227 0.687045 1.39227 -1.06581e-014 6.57 -3.55271e-015 -0.471761 0.582098 1.22708 1.06 4.19 1.76 11.2029 -0.0333632 -3.39753 5.81 1.25368e-014 -3.11277e-014 114.059 -68.6908 52.1291 -3.56746e-014 -12.08 -4.91385e-014 -16.1453 -20.9975 -40.4983 -2.13163e-014 -9.82 2.13163e-014 1.84398 -3.18765 0.0512477 -1.06 4.19 1.76 -4.48684 0.24942 6.2939 -6.06 -7.67935e-014 -3.73035e-014 -107.878 -59.6259 -23.893 3.22797e-014 -11.08 -3.89259e-014 10.6043 -15.1913 29.1991 -4.25929e-014 -9.82 8.52651e-014 -6.20622 -9.61309 -0.522279 5.32907e-014 4.05 -1.24345e-014 -0.814221 11.3457 -1.60244 3.55271e-015 5.19 0 2.47892 1.93419 -2.53497 
19.8442 36.9972 -16.1681 -0.0199638 -12.0358 -2.15236 3.43 -7.13635e-014 -3.05022e-014 15.3103 -9.73354 11.3121 1.38653e-014 -18.47 -1.02654e-014 0.249302 40.25 1.51774 0 -17.95 -4.44089e-015 -11.9239 -14.9753 -1.57277 -3.43 -2.14451e-013 8.08693e-015 -11.6 -10.67 -7.81552 -4.44089e-015 -18.47 -2.10291e-014 -4.92971 42.2945 7.82595 -5.32907e-015 -17.95 1.06581e-014 10.3606 -18.9883 1.73728 6.99025e-014 4.57 -5.07575e-014 -0.306723 0.611704 1.22791 -1.06581e-014 6.57 -3.55271e-015 -0.410601 0.516737 1.08168 1.06 4.19 1.76 10.8276 0.0138265 -3.15466 5.81 2.05453e-015 -3.00003e-014 113.732 -68.7446 52.1015 -2.22618e-014 -12.08 -4.87248e-014 -16.1741 -20.9183 -41.0942 -2.13163e-014 -9.82 2.13163e-014 1.21522 -3.20088 0.0339599 -1.06 4.19 1.76 -4.86012 0.249743 5.48378 -6.06 -6.73306e-014 -3.73035e-014 -108.61 -62.1484 -27.4038 4.70777e-014 -11.08 -3.85834e-014 10.3452 -12.2019 31.7877 -4.26545e-014 -9.82 8.52651e-014 -6.12 -10.2497 -0.549445 5.32907e-014 4.05 -1.24345e-014 -1.09512 11.1513 -1.47615 3.55271e-015 5.19 0 2.45979 1.80377 -2.4252 
19.8215 37.0131 -16.1752 -0.0965552 -11.9218 -2.09691 3.43 -4.86863e-014 -3.13922e-014 15.4046 -9.81701 11.3198 1.36108e-014 -18.47 -1.15244e-014 0.284147 40.109 1.47572 0 -17.95 -4.44089e-015 -11.945 -14.8669 -1.56404 -3.43 -2.1888e-013 1.25044e-014 -11.3802 -10.6947 -7.65831 -4.44089e-015 -18.47 -2.11298e-014 -4.96508 42.136 7.59434 -5.32907e-015 -17.95 1.06581e-014 10.4359 -18.9143 1.74305 6.90228e-014 4.57 -5.03381e-014 -0.279121 0.45941 1.22527 -1.06581e-014 6.57 -3.55271e-015 -0.385193 0.377037 1.08067 1.06 4.19 1.76 10.7592 0.0145024 -3.19131 5.81 -1.13187e-014 -2.84747e-014 113.358 -68.8862 51.7919 -7.76005e-015 -12.08 -4.83654e-014 -16.2877 -20.7158 -41.5908 -2.13163e-014 -9.82 2.13163e-014 1.10947 -3.14161 0.0304025 -1.06 4.19 1.76 -4.62792 0.268654 5.49205 -6.06 -5.57121e-014 -3.73035e-014 -108.513 -62.3332 -27.1214 6.45544e-014 -11.08 -3.80495e-014 10.5004 -12.0713 31.9975 -4.27983e-014 -9.82 8.52651e-014 -6.13594 -10.0987 -0.542682 5.32907e-014 4.05 -1.24345e-014 -1.10469 11.1715 -1.42752 3.55271e-015 5.19 0 2.75001 1.53842 -2.44553 
19.7917 37.0403 -16.1805 -0.0918947 -11.8281 -2.09118 3.43 -2.27359e-014 -3.22615e-014 15.4073 -9.77503 11.31 1.32945e-014 -18.47 -1.32908e-014 0.265449 39.817 1.49564 0 -17.95 -4.44089e-015 -11.9582 -14.7085 -1.54893 -3.43 -2.26512e-013 1.83437e-014 -11.2648 -10.6906 -7.55846 -4.44089e-015 -18.47 -2.12493e-014 -4.99037 41.9353 7.55098 -5.32907e-015 -17.95 1.06581e-014 10.4265 -18.8355 1.73407 6.79181e-014 4.57 -4.98679e-014 -0.294507 0.319908 1.24269 -1.06581e-014 6.57 -3.55271e-015 -0.400771 0.249919 1.09266 1.06 4.19 1.76 10.7428 0.0145155 -3.20189 5.81 -2.74138e-014 -2.65526e-014 112.704 -68.9612 51.1703 7.06205e-015 -12.08 -4.80565e-014 -16.3306 -20.6271 -41.8309 -2.13163e-014 -9.82 2.13163e-014 1.11349 -3.02192 0.0293722 -1.06 4.19 1.76 -4.45302 0.282679 5.49803 -6.06 -4.21517e-014 -3.73035e-014 -108.237 -62.4712 -26.8093 8.22371e-014 -11.08 -3.73269e-014 10.5847 -12.2023 32.0595 -4.30238e-014 -9.82 8.52651e-014 -5.97036 -10.0486 -0.525352 5.32907e-014 4.05 -1.24345e-014 -1.02371 11.205 -1.41836 3.55271e-015 5.19 0 2.50264 1.55134 -2.34371 
